<svg width="214" height="46" viewBox="0 0 214 46" fill="none" xmlns="http://www.w3.org/2000/svg">
<g id="Restaurant Logo">
<g id="Group 1">
<g id="Layer_1" clip-path="url(#clip0_6_1209)">
<g id="SVGRepo_iconCarrier">
<path id="Vector" d="M23 46C35.7025 46 46 35.7025 46 23C46 10.2975 35.7025 0 23 0C10.2975 0 0 10.2975 0 23C0 35.7025 10.2975 46 23 46Z" fill="#00447D"/>
<path id="Vector_2" d="M24.3419 45.96C36.4198 45.2651 46 35.252 46 23C46 22.2098 45.96 21.4289 45.8823 20.6591L31.0423 5.81909L30.9081 14.4572L13.0413 34.6596L24.3419 45.96Z" fill="#062964"/>
<path id="Vector_3" d="M29.9303 5.01526C29.9303 5.01526 32.4667 6.08647 32.7012 9.77096C32.9359 13.4559 30.5555 14.8413 30.5555 14.8413C30.5555 14.8413 28.0187 13.7701 27.7843 10.0855C27.5497 6.40047 29.9303 5.01526 29.9303 5.01526Z" fill="#72BD39"/>
<path id="Vector_4" d="M32.7013 9.77086C32.4668 6.08619 29.9303 5.01508 29.9303 5.01508C29.9303 5.01508 29.9151 5.02406 29.8899 5.0405L30.5131 14.8218C30.5396 14.8345 30.5555 14.8413 30.5555 14.8413C30.5555 14.8413 32.936 13.4558 32.7013 9.77086Z" fill="#51A448"/>
<path id="Vector_5" d="M29.1665 30.9372C33.3739 26.7283 34.7445 21.081 32.7044 17.4449C32.7678 17.3968 32.8299 17.3454 32.8878 17.2876C33.5727 16.6023 33.5727 15.4913 32.8878 14.8058C32.2028 14.1205 31.0919 14.1205 30.407 14.8058C30.3493 14.8636 30.2979 14.9256 30.2498 14.9892C26.6149 12.9484 20.9694 14.3196 16.7626 18.5282C12.5552 22.7369 11.1845 28.384 13.2246 32.0201C13.1614 32.0685 13.0993 32.1196 13.0412 32.1774C12.3564 32.8628 12.3564 33.9739 13.0412 34.6589C13.7265 35.3442 14.8369 35.3442 15.522 34.6589C15.5799 34.6009 15.6312 34.5391 15.6792 34.4755C19.3142 36.5167 24.9595 35.1457 29.1665 30.9372Z" fill="#FFEB3B"/>
<path id="Vector_6" d="M32.7045 17.4451C32.7678 17.397 32.8299 17.3456 32.8879 17.2878C33.5728 16.6025 33.5728 15.4915 32.8879 14.806C32.8808 14.7989 32.8731 14.7929 32.8657 14.786L12.9941 34.6072C13.0101 34.6245 13.0245 34.6426 13.0414 34.6594C13.7266 35.3447 14.8371 35.3447 15.5222 34.6594C15.5801 34.6013 15.6313 34.5395 15.6794 34.476C19.3143 36.5167 24.9598 35.1455 29.1666 30.937C33.3739 26.7283 34.7445 21.0812 32.7045 17.4451Z" fill="#E0CA00"/>
</g>
</g>
</g>
<g id="Frame 2">
<path id="Little Lemon" d="M49.8151 31V13.96H53.1271V28.096H61.8151V31H49.8151ZM63.5187 31V18.424H66.7347V31H63.5187ZM63.5187 16.672V13.48H66.7347V16.672H63.5187ZM77.1719 30.352C76.8999 30.464 76.5719 30.592 76.1879 30.736C75.8039 30.88 75.3879 30.992 74.9399 31.072C74.5079 31.168 74.0679 31.216 73.6199 31.216C73.0279 31.216 72.4839 31.112 71.9879 30.904C71.4919 30.696 71.0919 30.368 70.7879 29.92C70.4999 29.456 70.3559 28.856 70.3559 28.12V20.896H68.6999V18.424H70.3559V14.344H73.5719V18.424H76.2119V20.896H73.5719V27.04C73.5879 27.472 73.7079 27.784 73.9319 27.976C74.1559 28.168 74.4359 28.264 74.7719 28.264C75.1079 28.264 75.4359 28.208 75.7559 28.096C76.0759 27.984 76.3319 27.888 76.5239 27.808L77.1719 30.352ZM86.3359 30.352C86.0639 30.464 85.7359 30.592 85.3519 30.736C84.9679 30.88 84.5519 30.992 84.1039 31.072C83.6719 31.168 83.2319 31.216 82.7839 31.216C82.1919 31.216 81.6479 31.112 81.1519 30.904C80.6559 30.696 80.2559 30.368 79.9519 29.92C79.6639 29.456 79.5199 28.856 79.5199 28.12V20.896H77.8639V18.424H79.5199V14.344H82.7359V18.424H85.3759V20.896H82.7359V27.04C82.7519 27.472 82.8719 27.784 83.0959 27.976C83.3199 28.168 83.5999 28.264 83.9359 28.264C84.2719 28.264 84.5999 28.208 84.9199 28.096C85.2399 27.984 85.4959 27.888 85.6879 27.808L86.3359 30.352ZM87.9869 13.48H91.2029V26.968C91.2029 27.544 91.2989 27.936 91.4909 28.144C91.6829 28.336 91.9469 28.432 92.2829 28.432C92.5389 28.432 92.8029 28.4 93.0749 28.336C93.3469 28.272 93.5869 28.192 93.7949 28.096L94.2269 30.544C93.7949 30.752 93.2909 30.912 92.7149 31.024C92.1389 31.136 91.6189 31.192 91.1549 31.192C90.1469 31.192 89.3629 30.928 88.8029 30.4C88.2589 29.856 87.9869 29.088 87.9869 28.096V13.48ZM101.46 31.24C100.452 31.24 99.5401 31.072 98.7241 30.736C97.9081 30.384 97.2121 29.912 96.6361 29.32C96.0601 28.712 95.6121 28.024 95.2921 27.256C94.9881 26.472 94.8361 25.648 94.8361 24.784C94.8361 23.584 95.1001 22.488 95.6281 21.496C96.1721 20.504 96.9401 19.712 97.9321 19.12C98.9401 18.512 100.124 18.208 101.484 18.208C102.86 18.208 104.036 18.512 105.012 19.12C105.988 19.712 106.732 20.504 107.244 21.496C107.772 22.472 108.036 23.528 108.036 24.664C108.036 24.856 108.028 25.056 108.012 25.264C107.996 25.456 107.98 25.616 107.964 25.744H98.2441C98.3081 26.384 98.4921 26.944 98.7961 27.424C99.1161 27.904 99.5161 28.272 99.9961 28.528C100.492 28.768 101.02 28.888 101.58 28.888C102.22 28.888 102.82 28.736 103.38 28.432C103.956 28.112 104.348 27.696 104.556 27.184L107.316 27.952C107.012 28.592 106.572 29.16 105.996 29.656C105.436 30.152 104.772 30.544 104.004 30.832C103.236 31.104 102.388 31.24 101.46 31.24ZM98.1721 23.704H104.748C104.684 23.064 104.5 22.512 104.196 22.048C103.908 21.568 103.524 21.2 103.044 20.944C102.564 20.672 102.028 20.536 101.436 20.536C100.86 20.536 100.332 20.672 99.8521 20.944C99.3881 21.2 99.0041 21.568 98.7001 22.048C98.4121 22.512 98.2361 23.064 98.1721 23.704ZM116.073 31V13.96H119.385V28.096H128.073V31H116.073ZM135.515 31.24C134.507 31.24 133.595 31.072 132.779 30.736C131.963 30.384 131.267 29.912 130.691 29.32C130.115 28.712 129.667 28.024 129.347 27.256C129.043 26.472 128.891 25.648 128.891 24.784C128.891 23.584 129.155 22.488 129.683 21.496C130.227 20.504 130.995 19.712 131.987 19.12C132.995 18.512 134.179 18.208 135.539 18.208C136.915 18.208 138.091 18.512 139.067 19.12C140.043 19.712 140.787 20.504 141.299 21.496C141.827 22.472 142.091 23.528 142.091 24.664C142.091 24.856 142.083 25.056 142.067 25.264C142.051 25.456 142.035 25.616 142.019 25.744H132.299C132.363 26.384 132.547 26.944 132.851 27.424C133.171 27.904 133.571 28.272 134.051 28.528C134.547 28.768 135.075 28.888 135.635 28.888C136.275 28.888 136.875 28.736 137.435 28.432C138.011 28.112 138.403 27.696 138.611 27.184L141.371 27.952C141.067 28.592 140.627 29.16 140.051 29.656C139.491 30.152 138.827 30.544 138.059 30.832C137.291 31.104 136.443 31.24 135.515 31.24ZM132.227 23.704H138.803C138.739 23.064 138.555 22.512 138.251 22.048C137.963 21.568 137.579 21.2 137.099 20.944C136.619 20.672 136.083 20.536 135.491 20.536C134.915 20.536 134.387 20.672 133.907 20.944C133.443 21.2 133.059 21.568 132.755 22.048C132.467 22.512 132.291 23.064 132.227 23.704ZM163.586 31H160.37V23.944C160.37 22.952 160.194 22.224 159.842 21.76C159.506 21.28 159.034 21.04 158.426 21.04C157.802 21.04 157.202 21.288 156.626 21.784C156.066 22.264 155.666 22.896 155.426 23.68V31H152.21V23.944C152.21 22.936 152.034 22.2 151.682 21.736C151.346 21.272 150.874 21.04 150.266 21.04C149.642 21.04 149.042 21.28 148.466 21.76C147.906 22.24 147.506 22.872 147.266 23.656V31H144.05V18.424H146.954V20.752C147.434 19.936 148.074 19.312 148.874 18.88C149.674 18.432 150.594 18.208 151.634 18.208C152.674 18.208 153.482 18.464 154.058 18.976C154.65 19.488 155.026 20.12 155.186 20.872C155.698 20.008 156.346 19.352 157.13 18.904C157.93 18.44 158.826 18.208 159.818 18.208C160.602 18.208 161.234 18.352 161.714 18.64C162.21 18.912 162.594 19.288 162.866 19.768C163.138 20.232 163.322 20.76 163.418 21.352C163.53 21.944 163.586 22.544 163.586 23.152V31ZM172.194 31.24C171.17 31.24 170.25 31.072 169.434 30.736C168.618 30.384 167.922 29.904 167.346 29.296C166.786 28.688 166.354 27.992 166.05 27.208C165.746 26.424 165.594 25.6 165.594 24.736C165.594 23.856 165.746 23.024 166.05 22.24C166.354 21.456 166.786 20.76 167.346 20.152C167.922 19.544 168.618 19.072 169.434 18.736C170.25 18.384 171.17 18.208 172.194 18.208C173.218 18.208 174.13 18.384 174.93 18.736C175.746 19.072 176.442 19.544 177.018 20.152C177.594 20.76 178.026 21.456 178.314 22.24C178.618 23.024 178.77 23.856 178.77 24.736C178.77 25.6 178.618 26.424 178.314 27.208C178.026 27.992 177.594 28.688 177.018 29.296C176.458 29.904 175.77 30.384 174.954 30.736C174.138 31.072 173.218 31.24 172.194 31.24ZM168.906 24.736C168.906 25.472 169.05 26.128 169.338 26.704C169.626 27.264 170.018 27.704 170.514 28.024C171.01 28.344 171.57 28.504 172.194 28.504C172.802 28.504 173.354 28.344 173.85 28.024C174.346 27.688 174.738 27.24 175.026 26.68C175.33 26.104 175.482 25.448 175.482 24.712C175.482 23.992 175.33 23.344 175.026 22.768C174.738 22.192 174.346 21.744 173.85 21.424C173.354 21.104 172.802 20.944 172.194 20.944C171.57 20.944 171.01 21.112 170.514 21.448C170.018 21.768 169.626 22.216 169.338 22.792C169.05 23.352 168.906 24 168.906 24.736ZM192.629 31H189.413V23.944C189.413 22.936 189.237 22.2 188.885 21.736C188.533 21.272 188.045 21.04 187.421 21.04C186.989 21.04 186.549 21.152 186.101 21.376C185.669 21.6 185.277 21.912 184.925 22.312C184.573 22.696 184.317 23.144 184.157 23.656V31H180.941V18.424H183.845V20.752C184.165 20.208 184.573 19.752 185.069 19.384C185.565 19 186.133 18.712 186.773 18.52C187.429 18.312 188.117 18.208 188.837 18.208C189.621 18.208 190.261 18.352 190.757 18.64C191.269 18.912 191.653 19.288 191.909 19.768C192.181 20.232 192.365 20.76 192.461 21.352C192.573 21.944 192.629 22.544 192.629 23.152V31Z" fill="#FFEB3B"/>
</g>
</g>
<defs>
<clipPath id="clip0_6_1209">
<rect width="46" height="46" fill="white"/>
</clipPath>
</defs>
</svg>
